<?xml version="1.0" encoding="UTF-8" standalone="no"?>
<!DOCTYPE svg PUBLIC "-//W3C//DTD SVG 1.1//EN" "http://www.w3.org/Graphics/SVG/1.1/DTD/svg11.dtd">
<svg width="100%" height="100%" viewBox="0 0 500 500" version="1.1" xmlns="http://www.w3.org/2000/svg" xmlns:xlink="http://www.w3.org/1999/xlink" xml:space="preserve" xmlns:serif="http://www.serif.com/" style="fill-rule:evenodd;clip-rule:evenodd;stroke-linejoin:round;stroke-miterlimit:2;">
    <g id="gg-browser" transform="matrix(19.1667,0,0,19.1667,20,20)">
        <g transform="matrix(0.943478,0,0,0.943478,0.678261,0.678261)">
            <path d="M4,8C4.552,8 5,7.552 5,7C5,6.448 4.552,6 4,6C3.448,6 3,6.448 3,7C3,7.552 3.448,8 4,8Z" style="fill:rgb(0,136,224);fill-rule:nonzero;"/>
        </g>
        <g transform="matrix(0.943478,0,0,0.943478,0.678261,0.678261)">
            <path d="M8,7C8,7.552 7.552,8 7,8C6.448,8 6,7.552 6,7C6,6.448 6.448,6 7,6C7.552,6 8,6.448 8,7Z" style="fill:rgb(0,136,224);fill-rule:nonzero;"/>
        </g>
        <g transform="matrix(0.943478,0,0,0.943478,0.678261,0.678261)">
            <path d="M10,8C10.552,8 11,7.552 11,7C11,6.448 10.552,6 10,6C9.448,6 9,6.448 9,7C9,7.552 9.448,8 10,8Z" style="fill:rgb(0,136,224);fill-rule:nonzero;"/>
        </g>
        <g transform="matrix(0.943478,0,0,0.943478,0.678261,0.678261)">
            <path d="M3,3C1.343,3 0,4.343 0,6L0,18C0,19.657 1.343,21 3,21L21,21C22.657,21 24,19.657 24,18L24,6C24,4.343 22.657,3 21,3L3,3ZM21,5L3,5C2.448,5 2,5.448 2,6L2,9L22,9L22,6C22,5.448 21.552,5 21,5ZM2,18L2,11L22,11L22,18C22,18.552 21.552,19 21,19L3,19C2.448,19 2,18.552 2,18Z" style="fill:rgb(0,136,224);"/>
        </g>
    </g>
</svg>
